<?xml version="1.0"?>
<svg xmlns="http://www.w3.org/2000/svg" xmlns:xlink="http://www.w3.org/1999/xlink" width="512" height="512" viewBox="0 0 512 512"><defs><linearGradient id="a" data-name="New Gradient Swatch 1" x1="46.345" y1="549.656" x2="560.005" y2="35.995" gradientUnits="userSpaceOnUse"><stop offset="0" stop-color="#003f8a"/><stop offset="0.518" stop-color="#00d7df"/><stop offset="1" stop-color="#006df0"/></linearGradient><linearGradient id="b" x1="92.344" y1="595.656" x2="606.005" y2="81.995" xlink:href="#a"/><linearGradient id="c" x1="-15.646" y1="487.665" x2="498.014" y2="-25.995" xlink:href="#a"/><linearGradient id="d" x1="-137.656" y1="365.656" x2="376.005" y2="-148.005" xlink:href="#a"/><linearGradient id="f" x1="108.344" y1="611.656" x2="622.005" y2="97.995" xlink:href="#a"/><linearGradient id="g" x1="104.344" y1="607.656" x2="618.005" y2="93.995" xlink:href="#a"/></defs><g><path d="M240.027,392.665A8,8,0,0,0,248,400h16a8,8,0,0,0,7.973-7.335l8-96A8,8,0,0,0,272,288H240a8,8,0,0,0-7.973,8.665ZM263.306,304l-6.667,80h-1.278l-6.667-80Z" fill="url(#a)"/><path d="M272,408H240a8,8,0,0,0-8,8v32a8,8,0,0,0,8,8h32a8,8,0,0,0,8-8V416A8,8,0,0,0,272,408Zm-8,32H248V424h16Z" fill="url(#b)"/><path d="M480,320V112a24,24,0,0,0,0-48H432V56a24.032,24.032,0,0,0-24-24H360a24.032,24.032,0,0,0-24,24v8H176V56a24.032,24.032,0,0,0-24-24H104A24.032,24.032,0,0,0,80,56v8H32a24,24,0,0,0,0,48V320a24,24,0,0,0,0,48H167.03l-35.69,65.44c-.04.08-.09.16-.13.25A32,32,0,0,0,159.83,480H352.17a32,32,0,0,0,28.62-46.31c-.04-.09-.09-.17-.13-.25L344.97,368H480a24,24,0,0,0,0-48ZM352,56a8.011,8.011,0,0,1,8-8h48a8.011,8.011,0,0,1,8,8v8H352ZM96,56a8.011,8.011,0,0,1,8-8h48a8.011,8.011,0,0,1,8,8v8H96ZM24,88a8.011,8.011,0,0,1,8-8H480a8,8,0,0,1,0,16H32A8.011,8.011,0,0,1,24,88Zm440,24V320H318.79l-34.24-62.78a32,32,0,0,0-57.1,0L193.21,320H48V112ZM32,352a8,8,0,1,1,0-16H184.48l-8.72,16Zm334.54,88.96A16,16,0,0,1,352.17,464H159.83a16,16,0,0,1-14.37-23.04l42.03-77.05c.03-.06.07-.13.1-.19l17.37-31.84c.02-.04.04-.09.06-.13l36.54-66.99c.04-.08.09-.16.13-.25a16,16,0,0,1,28.62,0c.04.09.09.17.13.25l36.54,66.99c.02.04.04.09.06.13l17.37,31.84c.03.06.07.13.1.19Zm119.13-91.31A7.957,7.957,0,0,1,480,352H336.24l-8.72-16H480a8,8,0,0,1,5.67,13.65Z" fill="url(#c)"/><path d="M136,120H64a8,8,0,0,0,0,16h72a8,8,0,0,0,0-16Z" fill="url(#d)"/><path d="M88,144H64a8,8,0,0,0,0,16H88a8,8,0,0,0,0-16Z" fill="url(#d)"/><path d="M384,312h64a8,8,0,0,0,0-16H384a8,8,0,0,0,0,16Z" fill="url(#f)"/><path d="M416,288h32a8,8,0,0,0,0-16H416a8,8,0,0,0,0,16Z" fill="url(#g)"/></g></svg>
