<svg id="color" enable-background="new 0 0 24 24" height="512" viewBox="0 0 24 24" width="512" xmlns="http://www.w3.org/2000/svg"><path d="m24 2v15c0 1.1-.9 2-2 2h-4.56c-.36-2.54-2.54-4.5-5.19-4.5h-.25v-.53c.64-.57 1.15-1.27 1.5-2.07v2.6h9v-11.75c0-.69-.56-1.25-1.25-1.25h-6.5c-.69 0-1.25.56-1.25 1.25v4.38c-.34-.8-.86-1.51-1.5-2.08v-3.05c0-1.1.9-2 2-2h8c1.1 0 2 .9 2 2z" fill="#607d8b"/><path d="m22.5 2.75v11.75h-9v-2.6c.08-.19.16-.39.22-.6.11-.35.19-.73.24-1.11.02-.11.02-.23.03-.34.01-.12.01-.23.01-.35 0-.45-.05-.88-.13-1.25 0-.01 0-.02-.01-.03-.08-.38-.2-.75-.36-1.09v-4.38c0-.69.56-1.25 1.25-1.25h6.5c.69 0 1.25.56 1.25 1.25z" fill="#fafafa"/><g fill="#2196f3"><path d="m18 8c-.827 0-1.5-.673-1.5-1.5s.673-1.5 1.5-1.5 1.5.673 1.5 1.5-.673 1.5-1.5 1.5z"/><path d="m20.25 12h-4.5c-.414 0-.75-.336-.75-.75 0-1.241 1.009-2.25 2.25-2.25h1.5c1.241 0 2.25 1.009 2.25 2.25 0 .414-.336.75-.75.75z"/><path d="m15.25 24h-14.5c-.414 0-.75-.336-.75-.75v-3.5c0-2.068 1.682-3.75 3.75-3.75h8.5c2.068 0 3.75 1.682 3.75 3.75v3.5c0 .414-.336.75-.75.75z"/><path d="m11.4 10.08c-1.16 0-2.02-.7-2.53-1.26-1.89 1.34-4.66 1.27-5.32 1.21-.01 0-.01 0-.02 0 .27 2.23 2.17 3.97 4.47 3.97 2.31 0 4.22-1.75 4.47-4-.22.04-.55.08-1.07.08z"/></g><path d="m12.5 9.5c0 .17-.01.34-.03.5-.22.04-.55.08-1.07.08-1.16 0-2.02-.7-2.53-1.26-1.89 1.34-4.66 1.27-5.32 1.21-.01 0-.01 0-.02 0-.02-.17-.03-.35-.03-.53 0-.33.04-.66.11-.97.44-2.02 2.24-3.53 4.39-3.53 2.16 0 3.97 1.53 4.4 3.56.07.3.1.62.1.94z" fill="#ffc107"/></svg>