<svg id="Capa_1" enable-background="new 0 0 512 512" height="512" viewBox="0 0 512 512" width="512" xmlns="http://www.w3.org/2000/svg"><g><g><g><g><g><g><g><g><g><path d="m27.317 27.272v457.456c0 15.062 12.211 27.272 27.273 27.272h348.229c15.062 0 27.272-12.21 27.272-27.272v-364.454l-120.274-120.274h-255.227c-15.062 0-27.273 12.21-27.273 27.272z" fill="#eaecf0"/><path d="m402.819 512c15.062 0 27.272-12.21 27.272-27.272v-364.454l-95.458-95.458v127.193c0 11.372 9.219 20.59 20.59 20.59h20.616v339.401z" fill="#d3d7de"/><path d="m309.817 0 120.274 120.274h-99.667c-11.381 0-20.606-9.226-20.606-20.606v-99.668z" fill="#df705d"/></g></g></g></g></g></g><path d="m480.961 371.707-98.091-88.099c-7.22-6.484-18.709-1.36-18.709 8.344v38.289c-141.788 7.594-174.518 121.975-182.068 174.363-.957 6.638 7.523 10.131 11.565 4.78 35.736-47.306 91.895-75.724 152.139-75.724h18.364v34.489c0 9.704 11.489 14.828 18.709 8.344l98.091-88.099c4.962-4.455 4.962-12.23 0-16.687z" fill="#759ce7"/><path d="m345.797 373.922c-57.412 0-111.099 25.822-146.95 69.192-9.658 23.1-14.416 45.268-16.754 61.49-.957 6.638 7.523 10.131 11.565 4.78 35.736-47.306 91.895-75.724 152.139-75.724h18.364v34.489c0 9.704 11.489 14.828 18.709 8.344l98.091-88.099c4.217-3.787 4.836-9.965 1.885-14.473h-137.049z" fill="#5881cc"/></g><g fill="#676e84"><path d="m76.805 77.28h155.566c4.268 0 7.726-3.459 7.726-7.726 0-4.268-3.459-7.726-7.726-7.726h-155.566c-4.268 0-7.726 3.459-7.726 7.726-.001 4.267 3.458 7.726 7.726 7.726z"/><path d="m76.805 128.106h155.566c4.268 0 7.726-3.459 7.726-7.726 0-4.268-3.459-7.726-7.726-7.726h-155.566c-4.268 0-7.726 3.459-7.726 7.726-.001 4.267 3.458 7.726 7.726 7.726z"/><path d="m380.603 213.251h-303.798c-4.268 0-7.726 3.459-7.726 7.726 0 4.268 3.459 7.726 7.726 7.726h303.798c4.268 0 7.726-3.459 7.726-7.726 0-4.268-3.459-7.726-7.726-7.726z"/><path d="m309.817 282.923h-233.012c-4.268 0-7.726 3.459-7.726 7.726s3.459 7.726 7.726 7.726h233.012c4.268 0 7.726-3.459 7.726-7.726s-3.458-7.726-7.726-7.726z"/><path d="m206.385 352.596h-129.58c-4.268 0-7.726 3.459-7.726 7.726s3.459 7.726 7.726 7.726h129.58c4.268 0 7.726-3.459 7.726-7.726s-3.458-7.726-7.726-7.726z"/></g></g></g></svg>