<svg xmlns="http://www.w3.org/2000/svg" xmlns:xlink="http://www.w3.org/1999/xlink" viewBox="0 0 508.36 162.48"><defs><linearGradient id="a67e0415-0ae5-4d39-ac5b-19e6383e9c3c" x1="39.5" y1="19.62" x2="118.5" y2="156.46" gradientUnits="userSpaceOnUse"><stop offset="0" stop-color="#fcd015"/><stop offset="0.19" stop-color="#f7b61d"/><stop offset="0.37" stop-color="#f3a423"/><stop offset="0.5" stop-color="#f29e25"/><stop offset="1" stop-color="#a56c19"/></linearGradient></defs><g id="a93c2f9a-e4b3-44c5-b243-6a469d682ad2" data-name="Capa 2"><g id="aafff514-e181-4249-87d4-b0d2837ef367" data-name="Capa 31"><path d="M154,54.33v67.42a16.63,16.63,0,0,1-8.31,14.39L107,158.48V140l24.23-14A13.54,13.54,0,0,0,138,114.28V61.8a13.54,13.54,0,0,0-6.77-11.73L103.65,34.14V95.07a10.74,10.74,0,0,1-5.37,9.3l-13.91,8a10.73,10.73,0,0,1-10.74,0l-13.91-8a10.74,10.74,0,0,1-5.37-9.3V34.14L26.77,50.07A13.54,13.54,0,0,0,20,61.8v52.48A13.54,13.54,0,0,0,26.77,126L51,140v18.48L12.31,136.14A16.63,16.63,0,0,1,4,121.75V54.33a16.62,16.62,0,0,1,8.31-14.39L70.69,6.23a16.61,16.61,0,0,1,16.62,0l58.38,33.71A16.62,16.62,0,0,1,154,54.33Z" fill="none" stroke-linecap="round" stroke-linejoin="round" stroke-width="8" stroke="url(#a67e0415-0ae5-4d39-ac5b-19e6383e9c3c)"/><path d="M166.55,51.51a2.79,2.79,0,0,1,2.9-2.66h29.37a7.39,7.39,0,0,1,5.28,2.08,6.38,6.38,0,0,1,2.2,4.76,6.24,6.24,0,0,1-2.2,4.89,7.67,7.67,0,0,1-5.28,1.94h-17.6v65.15a6.47,6.47,0,0,1-2.06,4.9,8.16,8.16,0,0,1-10.56,0,6.46,6.46,0,0,1-2-4.9V51.51Z" fill="#e6e6e6"/><path d="M211,69.5a7.71,7.71,0,0,1,5,2.14,6.18,6.18,0,0,1,2.21,4.69v25.74a17.1,17.1,0,0,0,1.68,7.51,20.16,20.16,0,0,0,4.55,6.1,22.37,22.37,0,0,0,14.89,5.69,22.63,22.63,0,0,0,7.92-1.4,23.47,23.47,0,0,0,6.75-3.82,17.4,17.4,0,0,0,4.62-5.84,16.59,16.59,0,0,0,1.69-7.44V76.2a6.14,6.14,0,0,1,.88-3.22,10.2,10.2,0,0,0,1.32-1.47,7.94,7.94,0,0,1,5-2,8.32,8.32,0,0,1,5.28,2,6.14,6.14,0,0,1,1.61,2.14,8.69,8.69,0,0,1,.59,2.28v26.14a29.08,29.08,0,0,1-2.79,12.6A32.8,32.8,0,0,1,264.54,125a35.91,35.91,0,0,1-11.37,7,38.15,38.15,0,0,1-14,2.55,33.68,33.68,0,0,1-13.49-2.21,36.6,36.6,0,0,1-11.3-6.77,33.34,33.34,0,0,1-7.77-10.12,26.92,26.92,0,0,1-2.94-12.27V76.2a6.07,6.07,0,0,1,2.13-4.63A8,8,0,0,1,211,69.5Z" fill="#e6e6e6"/><path d="M287,48.72a7.36,7.36,0,0,1,5.35,2.07A8,8,0,0,1,294.76,56V68h33.89a6.91,6.91,0,0,1,5.13,2.08,6.45,6.45,0,0,1-.14,9.58,7,7,0,0,1-5,2.15H294.76V101.4a17.74,17.74,0,0,0,1.62,7.44,19.29,19.29,0,0,0,4.47,6.23,22.1,22.1,0,0,0,6.75,4.29,21.3,21.3,0,0,0,8.29,1.61,24.45,24.45,0,0,0,8.43-1.27,19.62,19.62,0,0,0,6.09-3.55h-.15a8.55,8.55,0,0,1,10.86.13,5.83,5.83,0,0,1,2.05,4.69,7.24,7.24,0,0,1-.36,2.21,4,4,0,0,1-1.4,1.95h.15a37.87,37.87,0,0,1-11.22,7,35.72,35.72,0,0,1-13.28,2.41,44.22,44.22,0,0,1-14.45-2.34,35.83,35.83,0,0,1-11.88-6.71A33.52,33.52,0,0,1,282.59,115a31.09,31.09,0,0,1-3.23-13.61V56A7.54,7.54,0,0,1,287,48.72Z" fill="#e6e6e6"/><path d="M353.15,69.5a7.76,7.76,0,0,1,5,2.14,6.21,6.21,0,0,1,2.2,4.69v25.74a17.1,17.1,0,0,0,1.68,7.51,20.16,20.16,0,0,0,4.55,6.1,22.37,22.37,0,0,0,14.89,5.69,22.63,22.63,0,0,0,7.92-1.4,23.34,23.34,0,0,0,6.75-3.82,17.4,17.4,0,0,0,4.62-5.84,16.46,16.46,0,0,0,1.69-7.44V76.2a6.14,6.14,0,0,1,.88-3.22,10.2,10.2,0,0,0,1.32-1.47,7.94,7.94,0,0,1,5-2,8.32,8.32,0,0,1,5.28,2,6.14,6.14,0,0,1,1.61,2.14,8.69,8.69,0,0,1,.59,2.28v26.14a29.08,29.08,0,0,1-2.79,12.6A32.8,32.8,0,0,1,406.69,125a35.8,35.8,0,0,1-11.37,7,38.15,38.15,0,0,1-14,2.55,33.68,33.68,0,0,1-13.49-2.21,36.6,36.6,0,0,1-11.3-6.77,33.34,33.34,0,0,1-7.77-10.12,26.92,26.92,0,0,1-2.94-12.27V76.2a6.07,6.07,0,0,1,2.13-4.63A8,8,0,0,1,353.15,69.5Z" fill="#e6e6e6"/><path d="M447.33,69.63a27,27,0,0,1,8.87,1.54,30.07,30.07,0,0,1,8.88,5q9.24-6.57,17.9-6.57a27.56,27.56,0,0,1,17.75,6.5,22.6,22.6,0,0,1,5.57,7.11A19.26,19.26,0,0,1,508.36,92v36.59a5.18,5.18,0,0,1-2.28,4.09,8.09,8.09,0,0,1-5.2,1.81,7.29,7.29,0,0,1-5.07-1.94,6.09,6.09,0,0,1-2.12-4.63V92.42a8.88,8.88,0,0,0-3-6.7A10.81,10.81,0,0,0,483,82.9a12,12,0,0,0-7.26,2.41,8.25,8.25,0,0,0-3.3,7.11v35.52a6.1,6.1,0,0,1-2.13,4.63,7.48,7.48,0,0,1-5.21,1.94,7.84,7.84,0,0,1-5-1.74,5.19,5.19,0,0,1-2.2-4.16V92.42a8.89,8.89,0,0,0-3.37-6.91,11.17,11.17,0,0,0-7.19-2.61,11.06,11.06,0,0,0-7.41,2.68,9.17,9.17,0,0,0-3.3,7v36.33a7,7,0,0,1-2.49,3.89,7.07,7.07,0,0,1-4.7,1.74,8.39,8.39,0,0,1-5.28-1.81,4.72,4.72,0,0,1-2-4.49V92a19.35,19.35,0,0,1,2-8.52,23.61,23.61,0,0,1,5.35-7.17,25.69,25.69,0,0,1,8-4.89A26.83,26.83,0,0,1,447.33,69.63Z" fill="#e6e6e6"/></g></g></svg>