<svg xmlns="http://www.w3.org/2000/svg" viewBox="0 0 146.36 150.51"><g id="ad343493-e777-4503-be30-57afddcabd37" data-name="Capa 2"><g id="e6a45cda-27e2-4a61-b621-a598c291df4f" data-name="Capa 31"><path d="M142.65,50.33v62.45A15.4,15.4,0,0,1,135,126.11L99.12,146.8V129.68l22.44-13a12.54,12.54,0,0,0,6.27-10.86V57.24a12.54,12.54,0,0,0-6.27-10.86L96,31.62V88.06a10,10,0,0,1-5,8.62l-12.89,7.44a9.92,9.92,0,0,1-9.94,0L55.32,96.68a9.94,9.94,0,0,1-5-8.62V31.62L24.8,46.38a12.54,12.54,0,0,0-6.27,10.86v48.62a12.54,12.54,0,0,0,6.27,10.86l22.44,13V146.8L11.4,126.11a15.4,15.4,0,0,1-7.69-13.33V50.33A15.38,15.38,0,0,1,11.4,37L65.48,5.77a15.4,15.4,0,0,1,15.4,0L135,37A15.38,15.38,0,0,1,142.65,50.33Z" fill="none" stroke="#ececec" stroke-linecap="round" stroke-linejoin="round" stroke-width="7.41"/></g></g></svg>