<svg xmlns="http://www.w3.org/2000/svg" xmlns:xlink="http://www.w3.org/1999/xlink" viewBox="0 0 569.8 181.3"><defs><linearGradient id="a19bfb32-de21-4931-87c5-d91b0993649b" x1="44.07" y1="21.94" x2="132.21" y2="174.61" gradientUnits="userSpaceOnUse"><stop offset="0" stop-color="#fcd015"/><stop offset="0.19" stop-color="#f7b61d"/><stop offset="0.37" stop-color="#f3a423"/><stop offset="0.5" stop-color="#f29e25"/><stop offset="1" stop-color="#a56c19"/></linearGradient></defs><g id="e045656f-b294-4ac0-860c-d9da85bc9056" data-name="Capa 2"><g id="e32d404a-9308-4877-8027-8c35065a791d" data-name="BRILLOS"><path d="M172.27,60.46v75.63A18.66,18.66,0,0,1,163,152.24l-43.4,25.06V156.57l27.18-15.7a15.19,15.19,0,0,0,7.6-13.16V68.84a15.19,15.19,0,0,0-7.6-13.16L115.79,37.81v68.35a12.07,12.07,0,0,1-6,10.44l-15.61,9a12,12,0,0,1-12,0l-15.6-9a12.06,12.06,0,0,1-6-10.44V37.81L29.54,55.68A15.19,15.19,0,0,0,22,68.84v58.87a15.19,15.19,0,0,0,7.59,13.16l27.19,15.7V177.3L13.32,152.24A18.68,18.68,0,0,1,4,136.09V60.46a18.65,18.65,0,0,1,9.32-16.14L78.81,6.5a18.66,18.66,0,0,1,18.65,0L163,44.32A18.63,18.63,0,0,1,172.27,60.46Z" fill="none" stroke-linecap="round" stroke-linejoin="round" stroke-width="8" stroke="url(#a19bfb32-de21-4931-87c5-d91b0993649b)"/><path d="M186.35,57.3a3.13,3.13,0,0,1,3.26-3h32.95a8.31,8.31,0,0,1,5.92,2.34A7.13,7.13,0,0,1,231,62a7,7,0,0,1-2.47,5.49,8.62,8.62,0,0,1-5.92,2.18H202.81v73.09a7.22,7.22,0,0,1-2.31,5.49,9.14,9.14,0,0,1-11.85,0,7.25,7.25,0,0,1-2.3-5.49V57.3Z" fill="#222"/><path d="M236.22,77.47a8.73,8.73,0,0,1,5.59,2.41,6.91,6.91,0,0,1,2.47,5.26V114a19.09,19.09,0,0,0,1.89,8.42,22.27,22.27,0,0,0,5.1,6.84A25.08,25.08,0,0,0,268,135.67a25.36,25.36,0,0,0,8.89-1.58,26.09,26.09,0,0,0,7.57-4.28,19.74,19.74,0,0,0,5.18-6.54,18.64,18.64,0,0,0,1.89-8.35V85a6.93,6.93,0,0,1,1-3.61A11,11,0,0,0,294,79.73a9,9,0,0,1,5.6-2.26,9.33,9.33,0,0,1,5.92,2.26,6.83,6.83,0,0,1,1.81,2.41,9.76,9.76,0,0,1,.66,2.55V114a32.58,32.58,0,0,1-3.13,14.13,36.63,36.63,0,0,1-8.55,11.58,40.58,40.58,0,0,1-12.76,7.82,42.74,42.74,0,0,1-15.72,2.86,37.71,37.71,0,0,1-15.14-2.48A41,41,0,0,1,240,140.34,37.61,37.61,0,0,1,231.28,129,30.15,30.15,0,0,1,228,115.22V85a6.82,6.82,0,0,1,2.38-5.19A9,9,0,0,1,236.22,77.47Z" fill="#222"/><path d="M321.46,54.16a8.26,8.26,0,0,1,6,2.33,9.11,9.11,0,0,1,2.72,5.79V75.82h38A7.76,7.76,0,0,1,374,78.15a7.24,7.24,0,0,1-.16,10.75,7.8,7.8,0,0,1-5.6,2.41h-38v22a19.85,19.85,0,0,0,1.81,8.34,21.86,21.86,0,0,0,5,7,25,25,0,0,0,7.57,4.81,24.07,24.07,0,0,0,9.29,1.8,27.32,27.32,0,0,0,9.47-1.43,22.21,22.21,0,0,0,6.83-4H370a9.58,9.58,0,0,1,12.18.15,6.54,6.54,0,0,1,2.31,5.26,7.87,7.87,0,0,1-.42,2.48,4.4,4.4,0,0,1-1.56,2.18h.17a42.47,42.47,0,0,1-12.59,7.82,40,40,0,0,1-14.9,2.71A49.37,49.37,0,0,1,339,147.78a40.21,40.21,0,0,1-13.33-7.52,37.67,37.67,0,0,1-9.13-11.73,34.7,34.7,0,0,1-3.62-15.26v-51a8.44,8.44,0,0,1,8.55-8.12Z" fill="#222"/><path d="M395.68,77.47a8.76,8.76,0,0,1,5.6,2.41,6.91,6.91,0,0,1,2.47,5.26V114a19.09,19.09,0,0,0,1.89,8.42,22.27,22.27,0,0,0,5.1,6.84,25.08,25.08,0,0,0,16.71,6.39,25.26,25.26,0,0,0,8.88-1.58,25.83,25.83,0,0,0,7.57-4.28,19.65,19.65,0,0,0,5.19-6.54,18.64,18.64,0,0,0,1.89-8.35V85a6.93,6.93,0,0,1,1-3.61,11,11,0,0,0,1.48-1.65,8.94,8.94,0,0,1,5.6-2.26A9.33,9.33,0,0,1,465,79.73a6.83,6.83,0,0,1,1.81,2.41,9.76,9.76,0,0,1,.66,2.55V114a32.72,32.72,0,0,1-3.13,14.13,36.66,36.66,0,0,1-8.56,11.58A40.41,40.41,0,0,1,443,147.55a42.74,42.74,0,0,1-15.72,2.86,37.71,37.71,0,0,1-15.14-2.48,41,41,0,0,1-12.67-7.59A37.61,37.61,0,0,1,390.75,129a30.15,30.15,0,0,1-3.29-13.76V85a6.82,6.82,0,0,1,2.38-5.19A9,9,0,0,1,395.68,77.47Z" fill="#222"/><path d="M501.34,77.62a30.54,30.54,0,0,1,10,1.73A34.31,34.31,0,0,1,521.25,85q10.38-7.36,20.08-7.37a31,31,0,0,1,19.92,7.3,25.44,25.44,0,0,1,6.25,8,21.72,21.72,0,0,1,2.3,9.85v41.05a5.82,5.82,0,0,1-2.55,4.59,9.09,9.09,0,0,1-5.84,2,8.1,8.1,0,0,1-5.68-2.18,6.79,6.79,0,0,1-2.38-5.19V103.19A10,10,0,0,0,550,95.67a12.17,12.17,0,0,0-8.64-3.16,13.43,13.43,0,0,0-8.14,2.71q-3.71,2.7-3.71,8V143a6.79,6.79,0,0,1-2.38,5.19,8.34,8.34,0,0,1-5.85,2.18,8.77,8.77,0,0,1-5.59-1.95,5.8,5.8,0,0,1-2.47-4.67v-40.6a9.91,9.91,0,0,0-3.79-7.74,12.75,12.75,0,0,0-16.37.07,10.24,10.24,0,0,0-3.7,7.82V144.1a8.51,8.51,0,0,1-8.07,6.31,9.4,9.4,0,0,1-5.92-2,5.32,5.32,0,0,1-2.31-5v-40.6a21.54,21.54,0,0,1,2.23-9.55,26.45,26.45,0,0,1,6-8,29,29,0,0,1,9-5.49A30.28,30.28,0,0,1,501.34,77.62Z" fill="#222"/></g></g></svg>