<svg xmlns="http://www.w3.org/2000/svg" xmlns:xlink="http://www.w3.org/1999/xlink" viewBox="0 0 158 162.48"><defs><linearGradient id="a48e92b6-de86-4597-a049-86600826e176" x1="39.5" y1="19.62" x2="118.5" y2="156.46" gradientUnits="userSpaceOnUse"><stop offset="0" stop-color="#fcd015"/><stop offset="0.19" stop-color="#f7b61d"/><stop offset="0.37" stop-color="#f3a423"/><stop offset="0.5" stop-color="#f29e25"/><stop offset="1" stop-color="#a56c19"/></linearGradient></defs><g id="b064b3f0-501f-4116-b039-112c2a1b569b" data-name="Capa 2"><g id="ba28e44f-8435-4a29-9e21-37e9bfc61859" data-name="BRILLOS"><path d="M154,54.33v67.42a16.63,16.63,0,0,1-8.31,14.39L107,158.48V140l24.23-14A13.54,13.54,0,0,0,138,114.28V61.8a13.54,13.54,0,0,0-6.77-11.73L103.65,34.14V95.07a10.74,10.74,0,0,1-5.37,9.3l-13.91,8a10.73,10.73,0,0,1-10.74,0l-13.91-8a10.74,10.74,0,0,1-5.37-9.3V34.14L26.77,50.07A13.54,13.54,0,0,0,20,61.8v52.48A13.54,13.54,0,0,0,26.77,126L51,140v18.48L12.31,136.14A16.63,16.63,0,0,1,4,121.75V54.33a16.62,16.62,0,0,1,8.31-14.39L70.69,6.23a16.61,16.61,0,0,1,16.62,0l58.38,33.71A16.62,16.62,0,0,1,154,54.33Z" fill="none" stroke-linecap="round" stroke-linejoin="round" stroke-width="8" stroke="url(#a48e92b6-de86-4597-a049-86600826e176)"/></g></g></svg>