<svg id="Capa_1" enable-background="new 0 0 512 512" height="512" viewBox="0 0 512 512" width="512" xmlns="http://www.w3.org/2000/svg"><g><path d="m486.49 227.721-223.768-223.768c-5.232-5.232-13.7-5.276-18.987-.099l-228.561 223.813c-4.652 4.555-1.427 12.46 5.085 12.46h51.321v216.069c0 4.013 3.254 7.268 7.268 7.268h343.65c4.014 0 7.268-3.254 7.268-7.268v-216.069h51.585c6.474 0 9.717-7.828 5.139-12.406z" fill="#fe9738"/><path d="m130.946 200.836h239.453v204.652h-239.453z" fill="#fee2ca"/><g fill="#fe860a"><path d="m394.45 456.197c0 4.013-3.254 7.268-7.268 7.268h35.316c4.014 0 7.268-3.254 7.268-7.268v-216.07h-35.316z"/><path d="m486.49 227.721-223.768-223.768c-5.232-5.232-13.7-5.276-18.987-.099l-8.3 8.128 215.739 215.74c4.578 4.578 1.336 12.406-5.139 12.406h35.316c6.474-.001 9.717-7.829 5.139-12.407z"/></g><path d="m340.969 200.836h29.43v204.652h-29.43z" fill="#fed5b0"/><path d="m304.065 292.126h-9.509c-.98-3.48-2.365-6.79-4.098-9.879l6.728-6.728c1.719-1.719 1.719-4.507 0-6.226l-11.284-11.284c-1.719-1.719-4.507-1.719-6.226 0l-6.728 6.728c-3.089-1.733-6.399-3.118-9.879-4.098v-9.509c0-2.431-1.971-4.402-4.402-4.402h-15.958c-2.431 0-4.402 1.971-4.402 4.402v9.509c-3.48.98-6.79 2.365-9.879 4.098l-6.728-6.728c-1.719-1.719-4.507-1.719-6.226 0l-11.284 11.284c-1.719 1.719-1.719 4.507 0 6.226l6.728 6.728c-1.733 3.089-3.118 6.399-4.098 9.879h-9.509c-2.431 0-4.402 1.971-4.402 4.402v15.958c0 2.431 1.971 4.402 4.402 4.402h9.509c.98 3.48 2.365 6.79 4.098 9.879l-6.728 6.728c-1.719 1.719-1.719 4.507 0 6.226l11.284 11.284c1.719 1.719 4.507 1.719 6.226 0l6.728-6.728c1.877 1.053 3.835 1.977 5.863 2.76 1.31.506 2.65.953 4.016 1.338v9.509c0 2.431 1.971 4.402 4.402 4.402h15.958c2.431 0 4.402-1.971 4.402-4.402v-9.509c3.48-.98 6.79-2.365 9.879-4.098l6.728 6.728c1.719 1.719 4.507 1.719 6.226 0l11.284-11.284c1.719-1.719 1.719-4.507 0-6.226l-6.728-6.728c1.733-3.089 3.118-6.399 4.098-9.879h9.509c2.431 0 4.402-1.971 4.402-4.402v-15.958c0-2.431-1.971-4.402-4.402-4.402z" fill="#537983"/><path d="m381.065 219.005h-260.784c-6.307 0-11.42-5.113-11.42-11.42v-13.497c0-6.307 5.113-11.42 11.42-11.42h260.784c6.307 0 11.42 5.113 11.42 11.42v13.497c0 6.307-5.113 11.42-11.42 11.42z" fill="#0268b4"/><path d="m381.065 423.658h-260.784c-6.307 0-11.42-5.113-11.42-11.42v-13.498c0-6.307 5.113-11.42 11.42-11.42h260.784c6.307 0 11.42 5.113 11.42 11.42v13.497c0 6.307-5.113 11.421-11.42 11.421z" fill="#0268b4"/><circle cx="250.687" cy="304.508" fill="#c8effe" r="19.154"/><path d="m381.065 182.668h-35.316c6.307 0 11.42 5.113 11.42 11.42v13.497c0 6.307-5.113 11.42-11.42 11.42h35.316c6.307 0 11.42-5.113 11.42-11.42v-13.497c0-6.307-5.113-11.42-11.42-11.42z" fill="#015a9a"/><path d="m381.065 387.32h-35.316c6.307 0 11.42 5.113 11.42 11.42v13.497c0 6.307-5.113 11.42-11.42 11.42h35.316c6.307 0 11.42-5.113 11.42-11.42v-13.497c0-6.307-5.113-11.42-11.42-11.42z" fill="#015a9a"/><path d="m494.364 393.251-.015-.006c3.098-7.995 4.774-16.7 4.67-25.814-.427-37.233-30.759-67.778-67.988-68.443-38.829-.693-70.524 30.575-70.524 69.247 0 8.822 1.667 17.25 4.674 25.01l-.015.006c2.507 5.243 54.909 114.853 53.396 111.687 4.501 9.415 17.904 9.415 22.405 0 .006-.013 53.299-111.485 53.299-111.485z" fill="#d83131"/><circle cx="429.765" cy="368.236" fill="#f79595" r="38.216"/><path d="m499.019 367.432c-.427-37.232-30.759-67.779-67.988-68.443-5.796-.103-11.428.52-16.825 1.759 30.44 7.034 53.399 34.328 53.77 66.684.105 9.114-1.571 17.819-4.67 25.813l.015.006-.097.203c-1.23 3.143-2.681 6.171-4.337 9.071l-44.643 93.38 4.319 9.033c4.501 9.415 17.904 9.415 22.405 0 .006-.013 53.299-111.485 53.299-111.485l.097-.203-.015-.006c3.099-7.994 4.774-16.698 4.67-25.812z" fill="#ca2c2c"/><path d="m429.765 330.02c-5.525 0-10.775 1.188-15.521 3.307 13.357 5.962 22.695 19.362 22.695 34.909s-9.337 28.946-22.695 34.909c4.747 2.119 9.996 3.307 15.521 3.307 21.072 0 38.216-17.144 38.216-38.216 0-21.073-17.143-38.216-38.216-38.216z" fill="#f47c7c"/><g><path d="m304.065 292.126h-9.509c-.98-3.48-2.365-6.79-4.098-9.879l6.728-6.728c1.719-1.719 1.719-4.506 0-6.226l-11.284-11.284c-1.719-1.72-4.506-1.72-6.226 0l-6.728 6.728c-.631-.354-1.278-.684-1.927-1.009l5.565 5.565c1.719 1.72 1.719 4.507 0 6.226l-6.728 6.728c1.733 3.089 3.118 6.399 4.098 9.879h9.509c2.431 0 4.402 1.971 4.402 4.403v15.958c0 2.431-1.971 4.402-4.402 4.402h-9.509c-.98 3.481-2.365 6.79-4.098 9.879l6.728 6.728c1.719 1.72 1.719 4.507 0 6.226l-5.565 5.565c.649-.324 1.296-.654 1.927-1.008l6.728 6.728c1.719 1.719 4.507 1.719 6.226 0l11.284-11.285c1.719-1.719 1.719-4.506 0-6.226l-6.728-6.728c1.733-3.089 3.118-6.399 4.098-9.879h9.509c2.431 0 4.402-1.971 4.402-4.402v-15.958c0-2.431-1.971-4.403-4.402-4.403z" fill="#3e5959"/></g><path d="m250.687 285.353c-2.606 0-5.09.527-7.357 1.474 6.92 2.891 11.797 9.725 11.797 17.68 0 7.956-4.877 14.79-11.797 17.68 2.267.947 4.751 1.474 7.357 1.474 10.562 0 19.154-8.592 19.154-19.154 0-10.561-8.593-19.154-19.154-19.154z" fill="#b3dafe"/></g></svg>